<svg width="14" height="16" viewBox="0 0 14 16" fill="none" xmlns="http://www.w3.org/2000/svg">
<path d="M0.903297 7.52606C0.778784 7.40154 0.708835 7.23266 0.708835 7.05656C0.708835 6.88047 0.778784 6.71158 0.903297 6.58706L5.5973 1.89606C6.02656 1.45577 6.53897 1.10509 7.10481 0.864369C7.67066 0.623646 8.27866 0.49767 8.89357 0.493747C9.50847 0.489824 10.118 0.608033 10.6869 0.841517C11.2558 1.075 11.7726 1.41911 12.2075 1.85389C12.6423 2.28867 12.9865 2.80546 13.2201 3.37429C13.4536 3.94313 13.5719 4.55267 13.5681 5.16758C13.5643 5.78248 13.4384 6.39051 13.1978 6.95639C12.9571 7.52226 12.6065 8.03473 12.1663 8.46406L6.0663 14.5641C5.44136 15.1734 4.60146 15.512 3.72861 15.5064C2.85577 15.5008 2.02028 15.1515 1.4032 14.5342C0.786128 13.9168 0.437168 13.0812 0.431944 12.2083C0.42672 11.3355 0.765653 10.4957 1.3753 9.87106L6.5363 4.71006C6.91123 4.34408 7.41531 4.14063 7.93924 4.14384C8.46318 4.14705 8.96473 4.35665 9.33515 4.7272C9.70557 5.09775 9.91499 5.59938 9.91802 6.12332C9.92104 6.64725 9.71741 7.15126 9.3513 7.52606L5.5973 11.2791C5.47291 11.4034 5.30421 11.4733 5.1283 11.4733C4.95239 11.4733 4.78368 11.4034 4.6593 11.2791C4.53491 11.1547 4.46503 10.986 4.46503 10.8101C4.46503 10.6342 4.53491 10.4654 4.6593 10.3411L8.4123 6.58706C8.47389 6.52547 8.52274 6.45235 8.55607 6.37188C8.58941 6.29141 8.60656 6.20516 8.60656 6.11806C8.60656 6.03096 8.58941 5.94471 8.55607 5.86424C8.52274 5.78377 8.47389 5.71065 8.4123 5.64906C8.35071 5.58747 8.27759 5.53861 8.19712 5.50528C8.11665 5.47195 8.0304 5.45479 7.9433 5.45479C7.8562 5.45479 7.76995 5.47195 7.68948 5.50528C7.609 5.53861 7.53589 5.58747 7.4743 5.64906L2.3133 10.8101C1.94 11.1834 1.73029 11.6896 1.73029 12.2176C1.73029 12.479 1.78178 12.7378 1.88181 12.9793C1.98184 13.2208 2.12846 13.4402 2.3133 13.6251C2.49813 13.8099 2.71756 13.9565 2.95906 14.0565C3.20056 14.1566 3.4594 14.2081 3.7208 14.2081C4.24871 14.2081 4.755 13.9984 5.1283 13.6251L11.2283 7.52506C11.5485 7.21976 11.8045 6.85349 11.9811 6.4478C12.1576 6.04212 12.2513 5.60522 12.2565 5.1628C12.2618 4.72038 12.1785 4.28138 12.0115 3.87163C11.8446 3.46189 11.5974 3.08967 11.2845 2.77687C10.9715 2.46408 10.5992 2.21703 10.1894 2.05027C9.77957 1.8835 9.34054 1.80038 8.89812 1.8058C8.4557 1.81123 8.01884 1.90508 7.61323 2.08184C7.20762 2.2586 6.84146 2.51469 6.5363 2.83506L1.8443 7.52606C1.71982 7.65027 1.55115 7.72002 1.3753 7.72002C1.19945 7.72002 1.03078 7.65027 0.906297 7.52606" fill="black" fill-opacity="0.45"/>
</svg>
