<svg width="24" height="24" viewBox="0 0 24 24" fill="none" xmlns="http://www.w3.org/2000/svg">
<path d="M7.50995 19.802C9.4015 20.8904 11.6241 21.2545 13.7641 20.8264C15.904 20.3983 17.8155 19.2073 19.1428 17.4749C20.4701 15.7426 21.1227 13.587 20.9792 11.4094C20.8357 9.23173 19.9058 7.18043 18.3626 5.63727C16.8195 4.09411 14.7682 3.16423 12.5906 3.02071C10.4129 2.87719 8.25733 3.52981 6.52499 4.85709C4.79265 6.18437 3.6016 8.09589 3.17352 10.2358C2.74544 12.3758 3.10951 14.5984 4.19795 16.49L4.20095 16.495C4.27395 16.622 4.31095 16.686 4.32795 16.747C4.34395 16.804 4.34795 16.855 4.34395 16.915C4.33244 17.0044 4.3089 17.0918 4.27395 17.175L3.50595 19.482L3.50495 19.485C3.34295 19.972 3.26195 20.215 3.31895 20.377C3.36895 20.519 3.48195 20.63 3.62295 20.681C3.78495 20.738 4.02695 20.658 4.51195 20.496L4.51795 20.494L6.82395 19.725C6.95495 19.681 7.02195 19.659 7.08595 19.655C7.14218 19.6512 7.19864 19.6569 7.25295 19.672C7.34166 19.705 7.42649 19.7475 7.50595 19.799L7.50995 19.802Z" stroke="#030391" stroke-width="2" stroke-linecap="round" stroke-linejoin="round"/>
</svg>
