<svg width="75" height="56" viewBox="0 0 75 56" fill="none" xmlns="http://www.w3.org/2000/svg">
<path d="M63.4638 4.69759C58.6865 2.50734 53.5789 0.914641 48.2384 0.00830078C47.5825 1.17062 46.8161 2.73372 46.2881 3.97764C40.6109 3.14089 34.9865 3.14089 29.414 3.97764C28.8853 2.73372 28.1021 1.17062 27.4406 0.00830078C22.0942 0.914641 16.9804 2.51294 12.2032 4.70959C2.56748 18.9815 -0.0446736 32.8997 1.2614 46.6197C7.65226 51.2977 13.8459 54.1392 19.9349 55.999C21.4383 53.9704 22.7792 51.8145 23.9343 49.5427C21.7343 48.7235 19.6272 47.7124 17.6363 46.5381C18.1645 46.1549 18.6811 45.7541 19.1803 45.3413C31.3235 50.9082 44.5179 50.9082 56.5155 45.3413C57.021 45.7541 57.537 46.1549 58.0594 46.5381C56.0627 47.718 53.95 48.7291 51.7502 49.5483C52.9053 51.8145 54.2404 53.9768 55.7491 56.0046C61.8447 54.1448 68.0435 51.3033 74.4343 46.6197C75.967 30.7143 71.8169 16.9248 63.4638 4.69759ZM25.5886 38.1818C21.9433 38.1818 18.9539 34.846 18.9539 30.7839C18.9539 26.7226 21.8794 23.3812 25.5886 23.3812C29.2981 23.3812 32.2875 26.7162 32.2235 30.7839C32.2291 34.846 29.2981 38.1818 25.5886 38.1818ZM50.1071 38.1818C46.4617 38.1818 43.4723 34.846 43.4723 30.7839C43.4723 26.7226 46.3985 23.3812 50.1071 23.3812C53.8164 23.3812 56.8059 26.7162 56.7419 30.7839C56.7419 34.846 53.8164 38.1818 50.1071 38.1818Z" fill="white"/>
</svg>
