<svg width="24" height="24" viewBox="0 0 24 24" fill="none" xmlns="http://www.w3.org/2000/svg">
<path d="M24 12.0735C24 5.4045 18.6269 -0.00150299 11.9999 -0.00150299C5.36995 -2.99071e-06 -0.00305176 5.4045 -0.00305176 12.075C-0.00305176 18.1005 4.38595 23.0955 10.1219 24.0015V15.564H7.07695V12.075H10.1249V9.4125C10.1249 6.387 11.9174 4.716 14.6579 4.716C15.9719 4.716 17.3444 4.9515 17.3444 4.9515V7.9215H15.8309C14.3414 7.9215 13.8764 8.853 13.8764 9.8085V12.0735H17.2034L16.6724 15.5625H13.8749V24C19.6109 23.094 24 18.099 24 12.0735Z" fill="#059BE5"/>
</svg>
