<svg width="24" height="24" viewBox="0 0 24 24" fill="none" xmlns="http://www.w3.org/2000/svg">
<path d="M0.75 17V7C0.75 5.3424 1.40848 3.75269 2.58058 2.58058C3.75269 1.40848 5.3424 0.75 7 0.75H17C18.6576 0.75 20.2473 1.40848 21.4194 2.58058C22.5915 3.75269 23.25 5.3424 23.25 7V17C23.25 18.6576 22.5915 20.2473 21.4194 21.4194C20.2473 22.5915 18.6576 23.25 17 23.25H7C5.3424 23.25 3.75269 22.5915 2.58058 21.4194C1.40848 20.2473 0.75 18.6576 0.75 17Z" stroke="#BEBFD3" stroke-width="1.5"/>
<path d="M17.625 15.125C17.625 15.125 15.75 17.625 12 17.625C8.25 17.625 6.375 15.125 6.375 15.125" stroke="#BEBFD3" stroke-width="1.5" stroke-linecap="round" stroke-linejoin="round"/>
<path d="M7.625 9.5C7.45924 9.5 7.30027 9.43415 7.18306 9.31694C7.06585 9.19973 7 9.04076 7 8.875C7 8.70924 7.06585 8.55027 7.18306 8.43306C7.30027 8.31585 7.45924 8.25 7.625 8.25C7.79076 8.25 7.94973 8.31585 8.06694 8.43306C8.18415 8.55027 8.25 8.70924 8.25 8.875C8.25 9.04076 8.18415 9.19973 8.06694 9.31694C7.94973 9.43415 7.79076 9.5 7.625 9.5ZM16.375 9.5C16.2092 9.5 16.0503 9.43415 15.9331 9.31694C15.8158 9.19973 15.75 9.04076 15.75 8.875C15.75 8.70924 15.8158 8.55027 15.9331 8.43306C16.0503 8.31585 16.2092 8.25 16.375 8.25C16.5408 8.25 16.6997 8.31585 16.8169 8.43306C16.9342 8.55027 17 8.70924 17 8.875C17 9.04076 16.9342 9.19973 16.8169 9.31694C16.6997 9.43415 16.5408 9.5 16.375 9.5Z" stroke="#BEBFD3" stroke-width="1.5" stroke-linecap="round" stroke-linejoin="round"/>
</svg>
