<svg width="16" height="16" viewBox="0 0 16 16" fill="none" xmlns="http://www.w3.org/2000/svg">
<path d="M11.498 5.501C11.5022 5.63518 11.4795 5.76885 11.4311 5.89406C11.3826 6.01927 11.3095 6.13348 11.2161 6.22989C11.1227 6.32631 11.0109 6.40297 10.8872 6.45532C10.7636 6.50767 10.6307 6.53465 10.4965 6.53465C10.3623 6.53465 10.2294 6.50767 10.1058 6.45532C9.98213 6.40297 9.87029 6.32631 9.77688 6.22989C9.68346 6.13348 9.61037 6.01927 9.56195 5.89406C9.51353 5.76885 9.49076 5.63518 9.495 5.501C9.50322 5.24086 9.61234 4.99413 9.79926 4.81303C9.98618 4.63192 10.2362 4.53065 10.4965 4.53065C10.7568 4.53065 11.0068 4.63192 11.1937 4.81303C11.3807 4.99413 11.4898 5.24086 11.498 5.501ZM2 4.5C2 3.83696 2.26339 3.20107 2.73223 2.73223C3.20107 2.26339 3.83696 2 4.5 2H11.498C12.161 2 12.7969 2.26339 13.2658 2.73223C13.7346 3.20107 13.998 3.83696 13.998 4.5V6.058C13.6693 5.98568 13.3297 5.97787 12.998 6.035V4.5C12.998 4.10218 12.84 3.72064 12.5587 3.43934C12.2774 3.15804 11.8958 3 11.498 3H4.5C4.10218 3 3.72064 3.15804 3.43934 3.43934C3.15804 3.72064 3 4.10218 3 4.5V11.498C3 11.73 3.052 11.949 3.146 12.145L6.797 8.494C7.11581 8.17524 7.54817 7.99616 7.999 7.99616C8.44983 7.99616 8.88219 8.17524 9.201 8.494L9.541 8.834L8.835 9.541L8.494 9.201C8.429 9.13599 8.35183 9.08442 8.2669 9.04924C8.18196 9.01406 8.09093 8.99595 7.999 8.99595C7.90707 8.99595 7.81604 9.01406 7.73111 9.04924C7.64617 9.08442 7.569 9.13599 7.504 9.201L3.853 12.851C4.049 12.945 4.268 12.998 4.5 12.998H6.296L6.046 13.998H4.5C3.83696 13.998 3.20107 13.7346 2.73223 13.2658C2.26339 12.7969 2 12.161 2 11.498V4.5ZM13.263 7.007C12.9123 7.04685 12.5855 7.20443 12.336 7.454L8.05 11.742C7.70332 12.0901 7.45431 12.5232 7.328 12.998L7.319 13.031L7.016 14.242C6.99038 14.3442 6.99168 14.4514 7.01978 14.553C7.04789 14.6545 7.10183 14.7471 7.17636 14.8216C7.25089 14.8962 7.34346 14.9501 7.44504 14.9782C7.54663 15.0063 7.65376 15.0076 7.756 14.982L8.966 14.679C9.45377 14.556 9.89938 14.3038 10.256 13.949L14.544 9.661C14.7732 9.43221 14.9256 9.13774 14.9799 8.81844C15.0342 8.49915 14.9878 8.17086 14.8471 7.87913C14.7064 7.58741 14.4784 7.34671 14.1947 7.19043C13.9111 7.03415 13.5858 6.97004 13.264 7.007" fill="#030391"/>
</svg>
