<svg width="23" height="23" viewBox="0 0 23 23" fill="none" xmlns="http://www.w3.org/2000/svg">
<path d="M22.495 18.9638C22.5066 19.4173 22.4233 19.8686 22.2499 20.2919C22.0766 20.7151 21.8164 21.102 21.4845 21.4304C21.1525 21.7588 20.7552 22.0223 20.3152 22.2058C19.8752 22.3893 19.4011 22.4893 18.9201 22.5H7.04521C6.7894 22.4852 6.5502 22.3755 6.37984 22.1949C6.20948 22.0144 6.12179 21.7776 6.13593 21.5362C6.12179 21.2949 6.20948 21.0581 6.37984 20.8776C6.5502 20.697 6.7894 20.5873 7.04521 20.5725H18.9201C19.3792 20.5782 19.8219 20.4121 20.1513 20.1105C20.4808 19.809 20.6701 19.3966 20.6777 18.9638V3.53625C20.6697 3.10359 20.4803 2.69154 20.1509 2.39028C19.8215 2.08901 19.379 1.92306 18.9201 1.92875H7.04521C6.79503 1.90053 6.5645 1.78679 6.39725 1.60908C6.23 1.43136 6.13763 1.20199 6.13763 0.964375C6.13763 0.72676 6.23 0.497389 6.39725 0.319672C6.5645 0.141954 6.79503 0.0282221 7.04521 0H18.9201C19.4015 0.0102201 19.8759 0.10984 20.3164 0.293156C20.7568 0.476472 21.1546 0.739886 21.487 1.06833C21.8194 1.39678 22.0799 1.78381 22.2535 2.20728C22.4272 2.63075 22.5106 3.08236 22.4989 3.53625L22.495 18.9638ZM13.7017 12.2788H3.49558L7.20691 15.7788C7.3016 15.8688 7.37656 15.9755 7.42751 16.0929C7.47846 16.2102 7.50439 16.3359 7.50384 16.4627C7.50329 16.5895 7.47625 16.715 7.42428 16.832C7.37231 16.9489 7.29642 17.0551 7.20095 17.1444C7.00813 17.3247 6.74724 17.4254 6.47567 17.4244C6.2041 17.4233 5.9441 17.3206 5.75287 17.1388L0.299859 12C0.204794 11.9104 0.129383 11.804 0.0779323 11.6869C0.0264817 11.5698 0 11.4443 0 11.3175C0 11.1907 0.0264817 11.0652 0.0779323 10.9481C0.129383 10.831 0.204794 10.7246 0.299859 10.635L5.75287 5.49C5.84702 5.39706 5.95992 5.32279 6.08493 5.27156C6.20994 5.22034 6.34454 5.19318 6.48084 5.19168C6.61713 5.19019 6.75237 5.21439 6.87861 5.26286C7.00485 5.31133 7.11955 5.3831 7.21597 5.47395C7.31239 5.5648 7.3886 5.6729 7.44011 5.7919C7.49163 5.91091 7.51741 6.03843 7.51595 6.16696C7.51449 6.2955 7.48581 6.42246 7.43161 6.54039C7.3774 6.65833 7.29875 6.76487 7.20029 6.85375L3.48895 10.3538H13.6951C14.0344 10.3538 14.3088 10.7863 14.3088 11.3175C14.3088 11.8488 14.0411 12.2788 13.7017 12.2788Z" fill="#BEBFD3"/>
</svg>
