<svg width="24" height="24" viewBox="0 0 24 24" fill="none" xmlns="http://www.w3.org/2000/svg">
<g clip-path="url(#clip0_57_331)">
<path d="M12.5929 23.258L12.5819 23.26L12.5109 23.295L12.4909 23.299L12.4769 23.295L12.4059 23.26C12.3953 23.2567 12.3873 23.2583 12.3819 23.265L12.3779 23.275L12.3609 23.703L12.3659 23.723L12.3759 23.736L12.4799 23.81L12.4949 23.814L12.5069 23.81L12.6109 23.736L12.6229 23.72L12.6269 23.703L12.6099 23.276C12.6073 23.2653 12.6016 23.2593 12.5929 23.258ZM12.8579 23.145L12.8449 23.147L12.6599 23.24L12.6499 23.25L12.6469 23.261L12.6649 23.691L12.6699 23.703L12.6779 23.71L12.8789 23.803C12.8916 23.8063 12.9013 23.8037 12.9079 23.795L12.9119 23.781L12.8779 23.167C12.8746 23.155 12.8679 23.1477 12.8579 23.145ZM12.1429 23.147C12.1385 23.1443 12.1333 23.1435 12.1282 23.1446C12.1232 23.1457 12.1188 23.1487 12.1159 23.153L12.1099 23.167L12.0759 23.781C12.0766 23.793 12.0823 23.801 12.0929 23.805L12.1079 23.803L12.3089 23.71L12.3189 23.702L12.3229 23.691L12.3399 23.261L12.3369 23.249L12.3269 23.239L12.1429 23.147Z" fill="#BEBFD3"/>
<path d="M12 2C17.523 2 22 6.477 22 12C22 17.523 17.523 22 12 22C6.477 22 2 17.523 2 12C2 6.477 6.477 2 12 2ZM12 4C9.87827 4 7.84344 4.84285 6.34315 6.34315C4.84285 7.84344 4 9.87827 4 12C4 14.1217 4.84285 16.1566 6.34315 17.6569C7.84344 19.1571 9.87827 20 12 20C14.1217 20 16.1566 19.1571 17.6569 17.6569C19.1571 16.1566 20 14.1217 20 12C20 9.87827 19.1571 7.84344 17.6569 6.34315C16.1566 4.84285 14.1217 4 12 4ZM12 15C12.3978 15 12.7794 15.158 13.0607 15.4393C13.342 15.7206 13.5 16.1022 13.5 16.5C13.5 16.8978 13.342 17.2794 13.0607 17.5607C12.7794 17.842 12.3978 18 12 18C11.6022 18 11.2206 17.842 10.9393 17.5607C10.658 17.2794 10.5 16.8978 10.5 16.5C10.5 16.1022 10.658 15.7206 10.9393 15.4393C11.2206 15.158 11.6022 15 12 15ZM12 10.5C12.3978 10.5 12.7794 10.658 13.0607 10.9393C13.342 11.2206 13.5 11.6022 13.5 12C13.5 12.3978 13.342 12.7794 13.0607 13.0607C12.7794 13.342 12.3978 13.5 12 13.5C11.6022 13.5 11.2206 13.342 10.9393 13.0607C10.658 12.7794 10.5 12.3978 10.5 12C10.5 11.6022 10.658 11.2206 10.9393 10.9393C11.2206 10.658 11.6022 10.5 12 10.5ZM12 6C12.3978 6 12.7794 6.15804 13.0607 6.43934C13.342 6.72064 13.5 7.10218 13.5 7.5C13.5 7.89782 13.342 8.27936 13.0607 8.56066C12.7794 8.84196 12.3978 9 12 9C11.6022 9 11.2206 8.84196 10.9393 8.56066C10.658 8.27936 10.5 7.89782 10.5 7.5C10.5 7.10218 10.658 6.72064 10.9393 6.43934C11.2206 6.15804 11.6022 6 12 6Z" fill="#BEBFD3"/>
</g>
<defs>
<clipPath id="clip0_57_331">
<rect width="24" height="24" fill="white"/>
</clipPath>
</defs>
</svg>
