<svg width="24" height="24" viewBox="0 0 24 24" fill="none" xmlns="http://www.w3.org/2000/svg">
<path d="M12.815 12.1971L5.28296 13.4531C5.19636 13.4675 5.1151 13.5045 5.04734 13.5604C4.97958 13.6162 4.92772 13.6889 4.89696 13.7711L2.29996 20.7281C2.05196 21.3681 2.72096 21.9781 3.33496 21.6711L21.335 12.6711C21.4596 12.6088 21.5645 12.5131 21.6378 12.3946C21.7111 12.276 21.7499 12.1394 21.7499 12.0001C21.7499 11.8607 21.7111 11.7241 21.6378 11.6056C21.5645 11.4871 21.4596 11.3913 21.335 11.3291L3.33496 2.32908C2.72096 2.02208 2.05196 2.63308 2.29996 3.27208L4.89796 10.2291C4.92857 10.3115 4.98038 10.3844 5.04815 10.4404C5.11591 10.4964 5.19725 10.5335 5.28396 10.5481L12.816 11.8031C12.8623 11.8112 12.9043 11.8354 12.9346 11.8714C12.9649 11.9075 12.9814 11.953 12.9814 12.0001C12.9814 12.0471 12.9649 12.0927 12.9346 12.1287C12.9043 12.1648 12.8623 12.189 12.816 12.1971H12.815Z" fill="url(#paint0_linear_57_251)"/>
<defs>
<linearGradient id="paint0_linear_57_251" x1="12.2325" y1="21.7529" x2="0.70621" y2="20.5908" gradientUnits="userSpaceOnUse">
<stop stop-color="#7158E2"/>
<stop offset="1" stop-color="#CD84F1"/>
</linearGradient>
</defs>
</svg>
